HIERARCHY
ROOT Bip001_Pelvis
{
  OFFSET 34.4345 95.6767 -26.8758
  CHANNELS 6 Xposition Yposition Zposition Zrotation Xrotation Yrotation
  JOINT Bip001_Spine
  {
    OFFSET 1.4188e-005 10.2191 -0.0116013
    CHANNELS 3 Zrotation Xrotation Yrotation
    JOINT Bip001_L_Thigh
    {
      OFFSET 11.0458 -10.2192 0.0116197
      CHANNELS 3 Zrotation Xrotation Yrotation
      JOINT Bip001_L_Calf
      {
        OFFSET -0.707118 -44.0221 0.360014
        CHANNELS 3 Zrotation Xrotation Yrotation
        JOINT Bip001_L_Foot
        {
          OFFSET -0.651902 -40.5938 -3.56146
          CHANNELS 3 Zrotation Xrotation Yrotation
          JOINT Bip001_L_Toe0
          {
            OFFSET 0.0530839 -10.2181 13.1504
            CHANNELS 3 Zrotation Xrotation Yrotation
            End Site
            {
              OFFSET -1.02532e-005 0 7.55606
            }
          }
        }
      }
    }
    JOINT Bip001_R_Thigh
    {
      OFFSET -11.0458 -10.2191 0.0115893
      CHANNELS 3 Zrotation Xrotation Yrotation
      JOINT Bip001_R_Calf
      {
        OFFSET 0.706994 -44.0221 0.35984
        CHANNELS 3 Zrotation Xrotation Yrotation
        JOINT Bip001_R_Foot
        {
          OFFSET 0.651786 -40.5938 -3.5613
          CHANNELS 3 Zrotation Xrotation Yrotation
          JOINT Bip001_R_Toe0
          {
            OFFSET -0.0531479 -10.2181 13.1504
            CHANNELS 3 Zrotation Xrotation Yrotation
            End Site
            {
              OFFSET -1.02894e-005 0 7.55606
            }
          }
        }
      }
    }
    JOINT Bip001_Spine1
    {
      OFFSET 1.87041e-005 14.5736 1.08638
      CHANNELS 3 Zrotation Xrotation Yrotation
      JOINT Bip001_Spine2
      {
        OFFSET 2.24614e-005 14.5058 -1.69078
        CHANNELS 3 Zrotation Xrotation Yrotation
        JOINT Bip001_Neck
        {
          OFFSET 2.20278e-005 15.3945 -0.489414
          CHANNELS 3 Zrotation Xrotation Yrotation
          JOINT Bip001_L_Clavicle
          {
            OFFSET 6.06036 -0.000579998 0.00836775
            CHANNELS 3 Zrotation Xrotation Yrotation
            JOINT Bip001_L_UpperArm
            {
              OFFSET 11.5509 -0.0600302 0.00193952
              CHANNELS 3 Zrotation Xrotation Yrotation
              JOINT Bip001_L_Forearm
              {
                OFFSET 25.9523 0.0806089 -2.15551
                CHANNELS 3 Zrotation Xrotation Yrotation
                JOINT Bip001_L_Hand
                {
                  OFFSET 32.2475 0.153767 1.63968
                  CHANNELS 3 Zrotation Xrotation Yrotation
                  JOINT Bip001_L_Finger0
                  {
                    OFFSET 6.04639 -2.20976 5.90322
                    CHANNELS 3 Zrotation Xrotation Yrotation
                    End Site
                    {
                      OFFSET 4.22375 -1.43895 0.606485
                    }
                  }
                  JOINT Bip001_L_Finger1
                  {
                    OFFSET 11.0826 -0.704819 -0.198153
                    CHANNELS 3 Zrotation Xrotation Yrotation
                    End Site
                    {
                      OFFSET 6.20027 -0.397518 -0.0787166
                    }
                  }
                }
              }
            }
          }
          JOINT Bip001_R_Clavicle
          {
            OFFSET -6.06037 -0.000563197 0.00835105
            CHANNELS 3 Zrotation Xrotation Yrotation
            JOINT Bip001_R_UpperArm
            {
              OFFSET -11.5509 -0.0599978 0.00190698
              CHANNELS 3 Zrotation Xrotation Yrotation
              JOINT Bip001_R_Forearm
              {
                OFFSET -25.9523 0.0806822 -2.15589
                CHANNELS 3 Zrotation Xrotation Yrotation
                JOINT Bip001_R_Hand
                {
                  OFFSET -32.2475 0.153859 1.63989
                  CHANNELS 3 Zrotation Xrotation Yrotation
                  JOINT Bip001_R_Finger0
                  {
                    OFFSET -6.04641 -2.20976 5.90317
                    CHANNELS 3 Zrotation Xrotation Yrotation
                    End Site
                    {
                      OFFSET -4.22376 -1.43895 0.60647
                    }
                  }
                  JOINT Bip001_R_Finger1
                  {
                    OFFSET -11.0826 -0.704794 -0.198182
                    CHANNELS 3 Zrotation Xrotation Yrotation
                    End Site
                    {
                      OFFSET -6.20028 -0.397504 -0.0787333
                    }
                  }
                }
              }
            }
          }
          JOINT Bip001_Head
          {
            OFFSET 1.09673e-005 11.2744 2.05948
            CHANNELS 3 Zrotation Xrotation Yrotation
            End Site
            {
              OFFSET 2.89576e-005 20.8808 -2.77728e-005
            }
          }
        }
      }
    }
  }
}
MOTION
Frames:	5
Frame Time:	0.04
32.108 95.1338 -30.5959 -0.00579598 -4.38754 -6.33405 0.416991 2.85918 -1.09112 5.99304 0.69758 12.7999 -0.470984 11.2443 2.40656 2.54178 -4.89442 0.00144723 1.48664 -6.52708 -0.309436 -4.59667 -5.15973 1.52127 -0.169208 17.6499 1.64392 -8.25216 -9.58741 -3.18383 2.95121 -10.1108 3.60113 0.890067 5.70991 -2.20723 0.890069 5.70996 -2.20724 5.97659 -4.96636 2.4628 -26.9443 8.27988 -6.38618 -45.2308 38.7736 -7.47527 13.8846 -5.31273 -28.9489 11.2019 1.50023 -4.77971 3.18055e-015 3.18055e-015 1.59028e-015 -0 0 3.18055e-015 21.3082 12.4882 18.7252 59.3006 24.7538 -13.5519 -21.3934 -5.31651 9.05638 -1.76437 -12.713 -13.1536 4.37326e-015 6.36111e-015 7.95139e-016 5.1684e-015 6.36111e-015 -0 -3.35092 -3.82515 4.56266 
31.5849 95.1519 -30.2001 -0.353283 -5.05327 -6.45144 0.487356 3.02914 -1.26665 6.49559 1.48938 12.7632 -0.532502 11.3863 2.55441 2.31587 -5.04698 -0.00231257 1.45267 -6.7271 -0.0848761 -4.17738 -4.09629 2.03996 0.032253 17.1363 1.08049 -7.9076 -9.88752 -2.96957 2.77204 -9.56144 3.387 1.04394 6.04661 -2.56444 1.04394 6.04662 -2.56444 6.32093 -4.46818 3.02913 -26.8514 8.11346 -7.31682 -46.0374 40.4758 -7.57786 14.0516 -4.35376 -28.1612 10.8724 1.65942 -4.44448 6.36111e-015 4.77083e-015 -1.59028e-015 1.76556e-031 6.36111e-015 -1.59028e-015 21.1955 11.5255 17.3395 57.4238 26.4621 -12.5917 -16.7415 -16.8147 4.07877 -1.40433 -10.208 -14.4945 8.82781e-032 -1.59028e-015 3.18055e-015 1.59028e-015 -1.59028e-015 -0 -3.50826 -4.55202 5.25192 
31.0819 95.16 -29.6858 -0.808191 -5.65722 -6.34489 0.577043 3.20326 -1.47274 6.91125 2.03569 14.1892 0.0916798 11.8828 1.00026 2.58842 -5.00017 -0.020885 1.64937 -7.01845 -0.200575 -3.89185 -2.66971 2.15437 0.4738 16.0106 0.444709 -7.21986 -10.1907 -2.57581 2.54429 -8.92741 3.22733 1.23936 6.39045 -2.98475 1.23937 6.39053 -2.98476 6.70489 -4.08448 3.54997 -26.7474 8.07373 -8.37372 -46.6859 42.8265 -7.47362 14.5265 -3.02255 -27.4169 9.44723 1.52576 -4.41737 -6.36111e-015 3.18055e-015 3.18055e-015 -3.18055e-015 1.59028e-015 3.97569e-015 20.775 10.4303 15.3131 55.58 26.552 -12.0517 -13.7926 -22.709 2.92457 2.53784 -5.74066 -16.5727 -0 0 6.36111e-015 -2.38542e-015 0 6.36111e-015 -3.63771 -5.05013 5.89993 
30.6361 95.0717 -29.1363 -1.33326 -6.10899 -6.34412 0.646561 3.31611 -1.64874 7.75535 2.19767 15.0144 0.421432 13.4024 0.602658 0.469613 -6.98153 -0.00437736 1.24324 -5.88538 0.0285871 -3.5448 -1.45533 1.62715 0.718905 15.2042 0.116635 -6.58873 -10.6957 -1.83463 2.3011 -8.32055 3.1683 1.3923 6.61182 -3.34325 1.3923 6.61162 -3.34325 7.22553 -3.70476 3.92662 -26.7414 7.88668 -8.97415 -47.2798 45.1555 -7.13726 16.4078 0.197699 -27.0851 6.50136 1.27516 -5.25486 3.18055e-015 3.18055e-015 -1.19271e-015 3.18055e-015 1.59028e-015 -1.59028e-015 20.2531 9.24721 12.9276 54.713 25.7801 -12.7222 -13.7602 -19.4229 4.15227 8.70478 -4.6383 -15.5413 1.59028e-015 0 3.18055e-015 -7.95139e-016 0 3.18055e-015 -3.62505 -5.50563 6.41754 
30.2615 94.987 -28.8141 -1.77152 -5.95915 -7.27061 0.655658 3.29294 -1.666 8.5439 2.36693 15.7066 0.321082 14.1568 0.733066 -1.03039 -8.24434 -0.0347569 0.65326 -5.01866 0.467264 -3.00981 -1.40417 1.58544 0.617626 15.1825 0.0938286 -6.26543 -11.0391 -1.08272 2.19585 -8.05714 3.14805 1.40016 6.56527 -3.37817 1.39897 6.56529 -3.378 7.69304 -3.20118 4.34071 -27.1867 7.60388 -9.38144 -48.1518 45.7114 -5.95671 17.998 3.26997 -27.3346 4.05222 1.26631 -5.63648 3.18055e-015 0 -7.95139e-016 -0 0 3.97569e-016 20.2623 7.97928 10.4665 53.8001 24.7675 -13.757 -15.8991 -7.32774 5.71346 13.4816 -8.00692 -5.48555 1.59028e-015 3.18055e-015 3.18055e-015 7.95139e-016 1.59028e-015 -0 -3.27446 -5.75407 6.9233 
